<svg xmlns="http://www.w3.org/2000/svg" width="52" height="52" fill="none">
        <rect width="52" height="52" fill="#fff" fill-opacity=".1" rx="12" />
        <path stroke="#fff" stroke-linecap="round" stroke-linejoin="round" stroke-width="1.5"
          d="M32.88 34.28q-.69.73-1.75.72h-.22a10 10 0 0 1-3.63-1.07 21 21 0 0 1-6.89-5.27 18 18 0 0 1-3.35-5.46 6.4 6.4 0 0 1-.52-2.86q.06-.79.64-1.35l1.59-1.56q.35-.31.7-.32a1 1 0 0 1 .7.33q.43.39.84.82l.44.44 1.28 1.25q.75.7 0 1.4l-.4.4c-.4.4-.09.1-.5.45l-.02.02c-.4.4-.32.78-.24 1.03l.01.05c.34.78.8 1.52 1.51 2.4h0a17 17 0 0 0 4.15 3.68q.29.18.57.31.26.12.46.24l.06.03q.22.12.46.12c.38 0 .63-.24.7-.32l.92-.89c.16-.16.41-.34.7-.34.3 0 .53.18.68.33v.01l2.57 2.51c.48.47 0 1.43 0 1.43s-1.17 1.13-1.46 1.47m1.88-11.22H29.3v-4.71m0 4.71L35.5 17" />
        <rect width="51" height="51" x=".5" y=".5" stroke="#fff" stroke-opacity=".1" rx="11.5" />
      </svg>