<svg xmlns="http://www.w3.org/2000/svg" width="10" height="10" fill="none"><path fill="#c2185b" fill-rule="evenodd" d="M4.56.18a.6.6 0 0 1 .88 0L6.75 1.5c.24.24.24.63 0 .87L5.44 3.7a.6.6 0 0 1-.88 0L3.25 2.37a.6.6 0 0 1 0-.87zM2.37 3.25a.6.6 0 0 0-.87 0L.18 4.56a.6.6 0 0 0 0 .88L1.5 6.75c.24.24.63.24.87 0L3.7 5.44a.6.6 0 0 0 0-.88zm5.26 0a.6.6 0 0 1 .87 0l1.32 1.31c.24.24.24.64 0 .88L8.5 6.75a.6.6 0 0 1-.87 0L6.3 5.44a.6.6 0 0 1 0-.88zM5.43 6.3a.6.6 0 0 0-.87 0L3.25 7.63a.6.6 0 0 0 0 .87l1.31 1.32c.24.24.64.24.88 0L6.75 8.5a.6.6 0 0 0 0-.87z"/></svg>