<svg viewBox="0 0 40 40" xmlns="http://www.w3.org/2000/svg" xmlns:xlink="http://www.w3.org/1999/xlink" width="40.000000" height="40.000000" fill="none" customFrame="#000000">
	<path id="Subtract" d="M35 0C37.7614 0 40 2.23858 40 5L40 11.3701C39.5418 10.7437 38.9805 10.1655 38.3164 9.63672C36.2122 7.93079 33.4576 7.07819 30.0527 7.07812C26.6476 7.07812 23.8731 7.9306 21.7305 9.63672C19.5879 11.3429 18.5167 13.5577 18.5166 16.2803C18.5166 20.0195 20.8506 22.9423 25.5186 25.0479L25.5186 25.7012C20.4298 27.7704 17.8848 30.7833 17.8848 34.7402C17.8848 36.7627 18.4637 38.5146 19.6152 40L5 40C2.23858 40 0 37.7614 0 35L0 32.9219L15.6152 32.9219C15.679 30.9852 16.367 29.281 17.6797 27.8076L4.98828 27.8076L4.93066 26.8623L8.27734 24.8613L14.4043 19.6357C15.2599 19.0098 16.0534 18.3638 16.7861 17.7002C16.4225 16.7838 16.2402 15.8034 16.2402 14.7598C16.2404 12.0374 17.3118 9.82328 19.4541 8.11719C20.4656 7.31168 21.6182 6.69574 22.9111 6.27051C22.9112 6.25977 22.9121 6.24902 22.9121 6.23828C22.9121 3.7885 22.2464 1.71019 20.9199 0L35 0ZM30.0527 27.7158C32.1952 28.3692 33.764 29.1685 34.7588 30.1123C35.7533 31.0198 36.251 32.272 36.251 33.8691C36.251 35.4664 35.677 36.7552 34.5293 37.7354C33.4198 38.7155 31.9274 39.206 30.0527 39.2061C28.178 39.2061 26.6664 38.7155 25.5186 37.7354C24.3707 36.7552 23.7969 35.4665 23.7969 33.8691C23.7969 32.2719 24.2943 31.0199 25.2891 30.1123C26.2839 29.1684 27.8718 28.3693 30.0527 27.7158ZM40 28.8613C38.7433 27.4058 36.9382 26.1707 34.5859 25.1562L34.5859 24.5029C37.0421 23.4629 38.8469 22.2031 40 20.7236L40 28.8613ZM11 0.901367C12.8151 0.901367 14.2715 1.4017 15.3682 2.40234C16.5026 3.36593 17.0693 4.68189 17.0693 6.34961C17.0692 9.7961 15.1221 12.9648 11.2275 15.8555L0 24.6279L0 7.01465L4.36426 7.90625C5.23395 3.23674 7.44571 0.901584 11 0.901367ZM30.0527 12.1963C31.7359 12.1964 33.0746 12.6503 34.0693 13.5576C35.1024 14.4289 35.6191 15.6092 35.6191 17.0977C35.6191 18.5133 35.1981 19.6204 34.3564 20.4189C33.5147 21.1812 32.0803 21.8896 30.0527 22.543C28.0249 21.8895 26.5704 21.1813 25.6904 20.4189C24.8488 19.6204 24.4278 18.5133 24.4277 17.0977C24.4277 15.6092 24.9445 14.4289 25.9775 13.5576C27.0106 12.6501 28.3693 12.1963 30.0527 12.1963Z" fill="rgb(194,24,91)" fill-rule="nonzero" />
</svg>
