<svg width="125" height="24" viewBox="0 0 125 24" fill="none" xmlns="http://www.w3.org/2000/svg">
<g clip-path="url(#clip0_94_4209)">
<path d="M4.65234 17.7759C5.34726 18.6605 5.97972 19.5924 6.54515 20.5647C7.02792 21.4792 7.22915 22.0993 7.58201 23.2011C7.79836 23.8099 7.99393 23.9915 8.41434 23.9915C8.87254 23.9915 9.08039 23.6824 9.241 23.2044C9.57449 22.1639 9.83619 21.3697 10.249 20.6194C11.0592 19.1708 12.0658 17.8835 13.055 16.6462C13.3228 16.296 15.054 14.2561 15.8335 12.6465C15.8335 12.6465 16.7914 10.8784 16.7914 8.40899C16.7914 6.09912 15.8467 4.49707 15.8467 4.49707L13.1268 5.22471L11.4749 9.57076L11.0663 10.1701L10.9845 10.2786L10.8759 10.4145L10.685 10.6316L10.4125 10.9038L8.94151 12.101L5.26407 14.2221L4.65234 17.7759Z" fill="#34A853"/>
<path d="M0.855469 12.3492C1.75298 14.3972 3.48376 16.1974 4.65478 17.7773L10.8745 10.4173C10.8745 10.4173 9.99829 11.5621 8.40875 11.5621C6.63829 11.5621 5.20793 10.1497 5.20793 8.36884C5.20793 7.1476 5.94342 6.30859 5.94342 6.30859L1.72133 7.43875L0.855469 12.3492Z" fill="#FBBC04"/>
<path d="M10.9435 0.374023C13.0092 1.03938 14.7773 2.43616 15.8468 4.49593L10.876 10.4133C10.876 10.4133 11.6115 9.55924 11.6115 8.34555C11.6115 6.52314 10.0753 5.16175 8.41583 5.16175C6.8466 5.16175 5.94531 6.30466 5.94531 6.30466V2.57678L10.9435 0.374023Z" fill="#4285F4"/>
<path d="M1.99609 2.98846C3.22994 1.51382 5.40097 -0.00469971 8.39394 -0.00469971C9.84603 -0.00469971 10.94 0.37611 10.94 0.37611L5.94232 6.30769H2.40139L1.99609 2.98846Z" fill="#1A73E8"/>
<path d="M0.856962 12.3492C0.856962 12.3492 0.03125 10.734 0.03125 8.39389C0.03125 6.18217 0.891918 4.24887 1.99633 2.98846L5.94539 6.30817L0.856962 12.3492Z" fill="#EA4335"/>
<path d="M85.8249 19.4581V6.84611H87.4471L91.8378 14.526H91.9086L96.2994 6.84611H97.9215V19.4581H96.2994V11.9717L96.3702 9.85767H96.2994L92.3503 16.7802H91.3985L87.4494 9.85767H87.3786L87.4494 11.9717V19.4577L85.8249 19.4581ZM102.664 19.7224C101.748 19.7224 100.98 19.4581 100.364 18.9296C99.7472 18.4011 99.4378 17.7027 99.4378 16.8335C99.4378 15.8898 99.8016 15.1574 100.531 14.6227C101.26 14.0881 102.159 13.8215 103.223 13.8215C104.176 13.8215 104.957 13.9975 105.569 14.35V14.1032C105.569 13.469 105.351 12.9612 104.917 12.58C104.482 12.1987 103.947 12.0076 103.312 12.0076C102.842 12.0076 102.416 12.1189 102.034 12.3379C101.652 12.5568 101.391 12.8664 101.25 13.2533L99.7685 12.6196C99.9683 12.1029 100.362 11.6286 100.949 11.1841C101.537 10.7396 102.313 10.5235 103.277 10.5235C104.382 10.5235 105.299 10.8467 106.027 11.4923C106.756 12.1378 107.121 13.0485 107.121 14.2231V19.4416H105.569V18.243H105.498C104.851 19.234 103.905 19.7224 102.664 19.7224ZM102.929 18.243C103.599 18.243 104.206 17.9929 104.753 17.4946C105.3 16.9963 105.574 16.4093 105.574 15.7251C105.115 15.349 104.428 15.1612 103.511 15.1612C102.723 15.1612 102.129 15.331 101.73 15.6722C101.331 16.0134 101.13 16.4121 101.13 16.8699C101.13 17.2927 101.312 17.6272 101.676 17.874C102.041 18.1208 102.458 18.244 102.928 18.244L102.929 18.243ZM113.199 19.7224C112.541 19.7224 111.95 19.5808 111.428 19.2996C110.905 19.0183 110.514 18.6654 110.256 18.2426H110.185L110.256 19.4402V23.245H108.634V10.8099H110.186V12.0076H110.257C110.515 11.5848 110.906 11.2327 111.429 10.9505C111.951 10.6684 112.542 10.5277 113.2 10.5277C114.317 10.5277 115.281 10.968 116.092 11.849C116.903 12.73 117.309 13.8215 117.309 15.1253C117.309 16.4291 116.902 17.5211 116.092 18.4016C115.281 19.2821 114.317 19.7229 113.2 19.7229L113.199 19.7224ZM112.935 18.243C113.687 18.243 114.333 17.958 114.874 17.3936C115.415 16.8293 115.685 16.0695 115.685 15.13C115.685 14.1905 115.415 13.4312 114.874 12.8664C114.333 12.3016 113.687 12.017 112.935 12.017C112.171 12.017 111.521 12.2987 110.986 12.8626C110.451 13.4265 110.184 14.1839 110.184 15.1347C110.184 16.0856 110.452 16.843 110.986 17.4069C111.52 17.9708 112.17 18.2525 112.935 18.2525V18.243ZM121.619 19.7224C120.655 19.7224 119.859 19.4874 119.23 19.0179C118.601 18.5483 118.143 17.9609 117.846 17.2563L119.291 16.657C119.749 17.7424 120.532 18.277 121.637 18.277C122.143 18.277 122.557 18.1656 122.88 17.9467C123.203 17.7277 123.366 17.43 123.366 17.0662C123.366 16.5027 122.972 16.1205 122.184 15.9214L120.438 15.499C119.886 15.3584 119.363 15.0909 118.869 14.6978C118.375 14.3047 118.128 13.7729 118.128 13.1042C118.128 12.3412 118.466 11.7216 119.142 11.245C119.818 10.7684 120.621 10.5315 121.549 10.5315C122.313 10.5315 122.994 10.7047 123.594 11.0506C124.182 11.3837 124.637 11.9095 124.881 12.5389L123.47 13.1203C123.154 12.3572 122.495 11.9755 121.496 11.9755C121.014 11.9755 120.608 12.0755 120.279 12.2747C119.951 12.4738 119.786 12.7446 119.786 13.0853C119.786 13.5785 120.164 13.913 120.932 14.0895L122.642 14.4944C123.453 14.6822 124.052 15.0054 124.44 15.4632C124.828 15.9209 125.022 16.4381 125.022 17.0138C125.022 17.7886 124.705 18.4294 124.07 18.9513C123.435 19.4732 122.618 19.7262 121.613 19.7262L121.619 19.7224ZM37.7541 11.9387H31.1002V13.9111H35.824C35.5911 16.6764 33.2873 17.8561 31.113 17.8561C30.424 17.8592 29.7413 17.7252 29.1047 17.4618C28.4682 17.1985 27.8905 16.811 27.4055 16.3222C26.9205 15.8333 26.5378 15.2528 26.2799 14.6146C26.0219 13.9764 25.8939 13.2932 25.9032 12.605C25.9032 9.61936 28.2169 7.31988 31.1182 7.31988C33.3573 7.31988 34.6752 8.74591 34.6752 8.74591L36.0578 7.3161C36.0578 7.3161 34.2831 5.34363 31.0473 5.34363C26.9268 5.34363 23.7383 8.81811 23.7383 12.571C23.7383 16.2479 26.7379 19.8347 31.1527 19.8347C35.0356 19.8347 37.8793 17.1771 37.8793 13.2472C37.8793 12.4186 37.7589 11.9391 37.7589 11.9391L37.7541 11.9387Z" fill="#4C4C4C"/>
<path d="M43.2182 10.5357C40.4878 10.5357 38.5312 12.6677 38.5312 15.1545C38.5312 17.6782 40.4293 19.8498 43.255 19.8498C45.8091 19.8498 47.9013 17.8999 47.9013 15.2083C47.9013 12.1236 45.4671 10.5348 43.2229 10.5348L43.2182 10.5357ZM43.2451 12.3652C44.588 12.3652 45.8601 13.4496 45.8601 15.1965C45.8601 16.9066 44.5928 18.0231 43.2385 18.0231C41.7505 18.0231 40.5766 16.8325 40.5766 15.1838C40.5766 13.5709 41.7363 12.3657 43.2446 12.3657L43.2451 12.3652Z" fill="#4C4C4C"/>
<path d="M53.3627 10.5357C50.6324 10.5357 48.6758 12.6677 48.6758 15.1545C48.6758 17.6782 50.5738 19.8498 53.3995 19.8498C55.9537 19.8498 58.0458 17.8999 58.0458 15.2083C58.0458 12.1236 55.6117 10.5348 53.3674 10.5348L53.3627 10.5357ZM53.3896 12.3652C54.7326 12.3652 56.0047 13.4496 56.0047 15.1965C56.0047 16.9066 54.7373 18.0231 53.383 18.0231C51.895 18.0231 50.7212 16.8325 50.7212 15.1838C50.7212 13.5709 51.8808 12.3657 53.3891 12.3657L53.3896 12.3652Z" fill="#4C4C4C"/>
<path d="M63.3512 10.5358C60.8453 10.5358 58.875 12.7286 58.875 15.1895C58.875 17.9925 61.1585 19.8517 63.3073 19.8517C64.6361 19.8517 65.3423 19.3246 65.8647 18.7192V19.6375C65.8647 21.2442 64.8879 22.2069 63.4084 22.2069C61.9842 22.2069 61.2704 21.1489 61.0219 20.5487L59.2302 21.2971C59.866 22.6396 61.1452 24.0401 63.424 24.0401C65.9157 24.0401 67.8152 22.4725 67.8152 19.1797V10.8132H65.8605V11.6022C65.2596 10.9557 64.4377 10.5334 63.3474 10.5334L63.3512 10.5358ZM63.5326 12.362C64.7617 12.362 66.023 13.4095 66.023 15.1994C66.023 17.019 64.7641 18.0213 63.5052 18.0213C62.1693 18.0213 60.9261 16.9378 60.9261 15.2164C60.9261 13.4232 62.2166 12.3615 63.5326 12.3615V12.362ZM76.539 10.5358C74.1752 10.5358 72.1898 12.4139 72.1898 15.1871C72.1898 18.1204 74.402 19.8607 76.7657 19.8607C78.7384 19.8607 79.9495 18.7824 80.6713 17.8165L79.0653 16.7453C78.6472 17.3937 77.9476 18.0279 76.7813 18.0279C75.4705 18.0279 74.8682 17.3106 74.495 16.616L80.7464 14.0206L80.4219 13.2656C79.8173 11.7782 78.4087 10.5362 76.5484 10.5362L76.539 10.5358ZM76.6202 12.327C77.4724 12.327 78.0846 12.78 78.3458 13.3218L74.171 15.0649C73.9915 13.7153 75.2702 12.327 76.6202 12.327ZM69.204 19.5832H71.2569V5.85138H69.204V19.5832Z" fill="#4C4C4C"/>
</g>
<defs>
<clipPath id="clip0_94_4209">
<rect width="125" height="24" fill="white"/>
</clipPath>
</defs>
</svg>
