<svg width="21" height="20" viewBox="0 0 21 20" fill="none" xmlns="http://www.w3.org/2000/svg">
<path d="M20.4753 9.11016L16.25 12.755L17.5158 18.1816C17.5827 18.4653 17.5636 18.7622 17.4608 19.0352C17.358 19.3082 17.1761 19.5452 16.9377 19.7166C16.6994 19.8879 16.4152 19.986 16.1208 19.9986C15.8263 20.0112 15.5347 19.9377 15.2823 19.7874L10.4939 16.9166L5.71587 19.7874C5.46345 19.9377 5.17179 20.0112 4.87734 19.9986C4.5829 19.986 4.29875 19.8879 4.06041 19.7166C3.82207 19.5452 3.64013 19.3082 3.53731 19.0352C3.4345 18.7622 3.41539 18.4653 3.48237 18.1816L4.74621 12.7606L0.519984 9.11016C0.296455 8.91961 0.13482 8.66806 0.0553486 8.38706C-0.0241227 8.10607 -0.0178924 7.80814 0.0732578 7.53063C0.164408 7.25312 0.336421 7.00839 0.567725 6.82713C0.79903 6.64586 1.07933 6.53614 1.37347 6.5117L6.94411 6.03479L9.11858 0.908257C9.23214 0.639258 9.42367 0.409482 9.66908 0.247861C9.91448 0.08624 10.2028 0 10.4977 0C10.7925 0 11.0808 0.08624 11.3262 0.247861C11.5716 0.409482 11.7632 0.639258 11.8767 0.908257L14.0578 6.03479L19.6265 6.5117C19.9207 6.53614 20.201 6.64586 20.4323 6.82713C20.6636 7.00839 20.8356 7.25312 20.9267 7.53063C21.0179 7.80814 21.0241 8.10607 20.9447 8.38706C20.8652 8.66806 20.7035 8.91961 20.48 9.11016H20.4753Z" fill="#FED156"/>
</svg>
