<svg width="146" height="22" viewBox="0 0 146 22" fill="none" xmlns="http://www.w3.org/2000/svg">
<path d="M65.1822 17.8568V15.7202C64.359 16.2708 62.9796 16.7554 61.6892 16.7554C59.7535 16.7554 59.0193 15.8523 58.9081 14.002H65.2934V12.6143C65.2934 8.75958 63.5803 7.30579 60.9327 7.30579C57.7067 7.30579 56.1715 9.7508 56.1715 13.0989C56.1715 16.9537 58.0849 18.826 61.4667 18.826C63.1576 18.826 64.4035 18.3854 65.1822 17.8568ZM81.7352 18.826C82.9589 18.826 83.8265 18.6057 84.4718 18.1432V16.0065C83.8043 16.4691 83.0033 16.7554 81.8909 16.7554C79.9998 16.7554 79.2211 15.3016 79.2211 13.0108C79.2211 10.6099 80.1778 9.37634 81.9132 9.37634C82.9366 9.37634 83.9378 9.72877 84.4718 10.0592V7.83444C83.9155 7.52606 82.9366 7.30579 81.6239 7.30579C78.2421 7.30579 76.4845 9.70675 76.4845 13.0769C76.4845 16.7775 78.1976 18.826 81.7352 18.826ZM40.9312 7.52606V11.9095H37.3937V7.52606H34.7461V18.6057H37.3937V13.98H40.9312V18.6057H43.5788V7.52606H40.9312ZM55.5263 16.5352H54.3471V7.52606H46.6269V8.47323C46.6269 11.1826 46.4489 14.6849 45.5144 16.5352H44.6912V21.1388H47.1386V18.6057H53.079V21.1388H55.5263V16.5352ZM73.6367 18.6057H76.6402L72.3908 12.6364L76.1285 7.52606H73.4587L69.7209 12.6364V7.52606H67.0733V18.6057H69.7209V13.165L73.6367 18.6057ZM60.8882 9.37634C62.2009 9.37634 62.6014 10.4557 62.6014 11.8434V12.0637H58.9081C58.9748 10.3015 59.62 9.37634 60.8882 9.37634ZM51.6995 16.5352H47.9618C48.696 14.8611 48.8962 11.8434 48.8962 9.92702V9.59661H51.6995V16.5352Z" fill="#333333"/>
<path d="M98.2977 18.6099H101.435L95.9171 10.548L101.079 3.30103H98.409L93.403 10.3497V3.30103H90.7109V18.6099H93.403V11.429L98.2977 18.6099Z" fill="#333333"/>
<path d="M110.43 11.0532C110.43 8.36591 109.05 7.35266 106.247 7.35266C104.489 7.35266 103.11 7.90334 102.309 8.36591V10.5466C103.021 10.0179 104.578 9.44524 105.935 9.44524C107.203 9.44524 107.782 9.88579 107.782 11.0753V11.692H107.359C103.31 11.692 101.508 13.0136 101.508 15.2604C101.508 17.5072 102.887 18.7627 104.934 18.7627C106.492 18.7627 107.159 18.2561 107.671 17.7275H107.782C107.804 18.0138 107.893 18.3883 107.982 18.6085H110.563C110.474 17.7054 110.43 16.8023 110.43 15.8992V11.0532ZM107.782 15.9653C107.448 16.4499 106.825 16.8464 105.891 16.8464C104.778 16.8464 104.222 16.1856 104.222 15.1943C104.222 13.8947 105.134 13.4322 107.404 13.4322H107.782V15.9653Z" fill="#333333"/>
<path d="M115.01 7.52606H112.562V21.7997H115.21V17.3061C115.878 18.2973 116.856 18.826 117.991 18.826C120.572 18.826 122.352 16.7775 122.352 13.0549C122.352 9.35431 120.616 7.30579 118.125 7.30579C116.879 7.30579 115.855 7.87849 115.143 8.95782L115.01 7.52606ZM117.324 16.7554C115.922 16.7554 115.21 15.6321 115.21 13.0769C115.21 10.4997 115.967 9.37634 117.457 9.37634C118.903 9.37634 119.615 10.4997 119.615 13.0549C119.615 15.6321 118.859 16.7554 117.324 16.7554Z" fill="#333333"/>
<path d="M131.662 9.6029V7.53235H122.785V9.6029H125.9V18.612H128.548V9.6029H131.662Z" fill="#333333"/>
<path d="M133.227 7.53235V18.612H137.254C139.857 18.612 141.703 17.2904 141.703 14.6912C141.703 12.2241 140.057 10.9245 137.298 10.9245H135.874V7.53235H133.227ZM142.682 7.53235V18.612H145.33V7.53235H142.682ZM137.098 16.5415H135.874V12.9951H137.165C138.299 12.9951 138.967 13.5017 138.967 14.7793C138.967 16.0569 138.233 16.5415 137.098 16.5415Z" fill="#333333"/>
<path d="M32.521 18.6099H29.829V5.37158H28.6275C26.4249 5.37158 25.268 6.47294 25.268 8.10295C25.268 9.95323 26.0689 10.8123 27.7153 11.9136L29.0725 12.8168L25.1568 18.6099H22.2422L25.7575 13.4335C23.7328 12.0018 22.5982 10.614 22.5982 8.25714C22.5982 5.3055 24.6673 3.30103 28.6053 3.30103H32.521V18.6099Z" fill="#333333"/>
<path d="M7.78658 0C6.24664 0.000780428 4.74148 0.440359 3.46122 1.26321C2.18096 2.08606 1.18304 3.25527 0.593507 4.62316C0.00397059 5.99104 -0.150732 7.49624 0.148939 8.94862C0.44861 10.401 1.18921 11.7354 2.2772 12.7833C3.68786 14.1397 7.00769 16.1019 7.20414 18.1631C7.23357 18.4709 7.46637 18.7231 7.78658 18.7231C8.1068 18.7231 8.34047 18.4709 8.36903 18.1631C8.56548 16.1019 11.8827 14.143 13.2925 12.7875C14.3818 11.74 15.1236 10.4055 15.4242 8.95274C15.7249 7.49996 15.5708 5.9941 14.9815 4.62549C14.3922 3.25689 13.3942 2.08699 12.1135 1.26368C10.8329 0.440374 9.32712 0.000617001 7.78658 0ZM7.78658 10.0514C7.43665 10.0514 7.09015 9.98511 6.76685 9.85635C6.44356 9.72759 6.1498 9.53887 5.90236 9.30095C5.65493 9.06303 5.45865 8.78058 5.32473 8.46973C5.19082 8.15887 5.1219 7.8257 5.1219 7.48923C5.1219 7.15277 5.19082 6.8196 5.32473 6.50874C5.45865 6.19789 5.65493 5.91544 5.90236 5.67752C6.1498 5.4396 6.44356 5.25088 6.76685 5.12212C7.09015 4.99336 7.43665 4.92708 7.78658 4.92708C8.4933 4.92708 9.17108 5.19702 9.6708 5.67752C10.1705 6.15802 10.4513 6.80971 10.4513 7.48923C10.4513 8.16876 10.1705 8.82045 9.6708 9.30095C9.17108 9.78145 8.4933 10.0514 7.78658 10.0514Z" fill="#FF4433"/>
</svg>
